# Blender v2.91.2 OBJ File: ''
# www.blender.org
mtllib untitled.mtl
o Cube.002_Cube.005
v 0.000079 0.000931 0.000732
v 0.000079 0.000883 0.000725
v 0.000079 0.000937 0.000690
v 0.000142 0.001039 0.000747
v 0.000206 0.001066 0.000751
v 0.000142 0.001045 0.000706
v 0.000142 0.000883 0.000725
v 0.000206 0.000883 0.000725
v 0.000144 0.000787 0.000711
v 0.000180 0.000690 0.000697
v 0.000207 0.000787 0.000711
v 0.000081 0.000787 0.000711
v 0.000129 0.000690 0.000697
v 0.000081 0.000793 0.000669
v 0.000129 0.000696 0.000656
v 0.000079 0.000889 0.000683
v 0.000144 0.000793 0.000669
v 0.000180 0.000696 0.000656
v 0.000142 0.000889 0.000683
v 0.000207 0.000793 0.000669
v 0.000231 0.000696 0.000656
v 0.000206 0.000889 0.000683
v 0.000270 0.000793 0.000669
v 0.000332 0.000793 0.000669
v 0.000282 0.000696 0.000656
v 0.000269 0.000889 0.000683
v 0.000332 0.000889 0.000683
v 0.000269 0.001038 0.000705
v 0.000332 0.000966 0.000694
v 0.000206 0.001072 0.000710
v 0.000269 0.001032 0.000746
v 0.000332 0.000960 0.000736
v 0.000269 0.000883 0.000725
v 0.000332 0.000883 0.000725
v 0.000270 0.000787 0.000711
v 0.000332 0.000787 0.000711
v 0.000282 0.000690 0.000697
v 0.000231 0.000690 0.000697
v 0.000332 0.000690 0.000697
v 0.000328 0.000513 0.000672
v 0.000328 0.000519 0.000630
v 0.000485 0.000690 0.000697
v 0.000434 0.000690 0.000697
v 0.000383 0.000690 0.000697
v 0.000535 0.000690 0.000697
v 0.000583 0.000787 0.000711
v 0.000535 0.000696 0.000656
v 0.000583 0.000793 0.000669
v 0.000485 0.000696 0.000656
v 0.000434 0.000696 0.000656
v 0.000521 0.000793 0.000669
v 0.000523 0.000889 0.000683
v 0.000458 0.000793 0.000669
v 0.000459 0.000889 0.000683
v 0.000395 0.000793 0.000669
v 0.000383 0.000696 0.000656
v 0.000396 0.000889 0.000683
v 0.000396 0.001038 0.000704
v 0.000459 0.001072 0.000710
v 0.000396 0.001032 0.000747
v 0.000459 0.001066 0.000751
v 0.000396 0.000883 0.000725
v 0.000459 0.000883 0.000725
v 0.000395 0.000787 0.000711
v 0.000458 0.000787 0.000711
v 0.000521 0.000787 0.000711
v 0.000523 0.000883 0.000725
v 0.000586 0.000883 0.000725
v 0.000523 0.001039 0.000747
v 0.000586 0.000931 0.000732
v 0.000523 0.001045 0.000706
v 0.000586 0.000937 0.000690
v 0.000586 0.000889 0.000683
v 0.000332 0.000696 0.000656
v -0.000584 0.000931 0.000732
v -0.000584 0.000883 0.000725
v -0.000584 0.000937 0.000690
v -0.000521 0.001039 0.000747
v -0.000458 0.001066 0.000751
v -0.000521 0.001045 0.000706
v -0.000521 0.000883 0.000725
v -0.000458 0.000883 0.000725
v -0.000519 0.000787 0.000711
v -0.000483 0.000690 0.000697
v -0.000456 0.000787 0.000711
v -0.000582 0.000787 0.000711
v -0.000534 0.000690 0.000697
v -0.000582 0.000793 0.000669
v -0.000534 0.000696 0.000656
v -0.000584 0.000889 0.000683
v -0.000519 0.000793 0.000669
v -0.000483 0.000696 0.000656
v -0.000521 0.000889 0.000683
v -0.000456 0.000793 0.000669
v -0.000432 0.000696 0.000656
v -0.000458 0.000889 0.000683
v -0.000394 0.000793 0.000669
v -0.000331 0.000793 0.000669
v -0.000381 0.000696 0.000656
v -0.000394 0.000889 0.000683
v -0.000331 0.000889 0.000683
v -0.000394 0.001038 0.000705
v -0.000331 0.000966 0.000694
v -0.000458 0.001072 0.000710
v -0.000394 0.001032 0.000746
v -0.000331 0.000960 0.000736
v -0.000394 0.000883 0.000725
v -0.000331 0.000883 0.000725
v -0.000394 0.000787 0.000711
v -0.000331 0.000787 0.000711
v -0.000381 0.000690 0.000697
v -0.000432 0.000690 0.000697
v -0.000331 0.000690 0.000697
v -0.000335 0.000513 0.000672
v -0.000335 0.000519 0.000630
v -0.000179 0.000690 0.000697
v -0.000229 0.000690 0.000697
v -0.000280 0.000690 0.000697
v -0.000128 0.000690 0.000697
v -0.000080 0.000787 0.000711
v -0.000128 0.000696 0.000656
v -0.000080 0.000793 0.000669
v -0.000179 0.000696 0.000656
v -0.000229 0.000696 0.000656
v -0.000142 0.000793 0.000669
v -0.000140 0.000889 0.000683
v -0.000205 0.000793 0.000669
v -0.000204 0.000889 0.000683
v -0.000268 0.000793 0.000669
v -0.000280 0.000696 0.000656
v -0.000267 0.000889 0.000683
v -0.000267 0.001038 0.000704
v -0.000204 0.001072 0.000710
v -0.000267 0.001032 0.000747
v -0.000204 0.001066 0.000751
v -0.000267 0.000883 0.000725
v -0.000204 0.000883 0.000725
v -0.000268 0.000787 0.000711
v -0.000205 0.000787 0.000711
v -0.000142 0.000787 0.000711
v -0.000140 0.000883 0.000725
v -0.000077 0.000883 0.000725
v -0.000140 0.001039 0.000747
v -0.000077 0.000931 0.000732
v -0.000140 0.001045 0.000706
v -0.000077 0.000937 0.000690
v -0.000077 0.000889 0.000683
v -0.000331 0.000696 0.000656
v 0.000079 0.000852 0.000720
v 0.000079 0.000858 0.000679
v -0.000077 0.000858 0.000679
v -0.000077 0.000852 0.000720
v -0.000080 0.000793 0.000669
v 0.000001 0.000815 0.000715
v 0.000001 0.000879 0.000724
v 0.000001 0.000820 0.000673
v 0.000001 0.000885 0.000683
v 0.000552 0.000793 0.000669
v 0.000552 0.000787 0.000711
v 0.000510 0.000690 0.000697
v 0.000510 0.000696 0.000656
v 0.000554 0.000883 0.000725
v 0.000554 0.000985 0.000739
v 0.000554 0.000991 0.000698
v 0.000554 0.000889 0.000683
v -0.000553 0.000985 0.000739
v -0.000553 0.000883 0.000725
v -0.000550 0.000787 0.000711
v -0.000550 0.000793 0.000669
v -0.000553 0.000889 0.000683
v -0.000508 0.000696 0.000656
v -0.000508 0.000690 0.000697
v -0.000553 0.000991 0.000698
v 0.000552 0.000899 -0.000113
v 0.000583 0.000899 -0.000113
v -0.000584 0.000995 -0.000099
v -0.000582 0.000899 -0.000113
v -0.000550 0.000899 -0.000113
v -0.000553 0.000995 -0.000099
v 0.000552 0.000804 -0.000324
v 0.000583 0.000804 -0.000324
v -0.000584 0.000900 -0.000310
v -0.000582 0.000804 -0.000324
v -0.000550 0.000804 -0.000324
v -0.000553 0.000900 -0.000310
v 0.000583 0.000793 0.000669
v 0.000586 0.000889 0.000683
v 0.000552 0.000793 0.000669
v 0.000554 0.000889 0.000683
v 0.000552 0.000899 -0.000113
v 0.000583 0.000899 -0.000113
v 0.000554 0.000995 -0.000099
v 0.000586 0.000995 -0.000099
v 0.000552 0.000804 -0.000324
v 0.000583 0.000804 -0.000324
v 0.000554 0.000900 -0.000310
v 0.000586 0.000900 -0.000310
vt 0.619481 0.738827
vt 0.619481 0.851583
vt 0.567261 0.773641
vt 0.567261 0.738827
vt 0.567261 0.773641
vt 0.567261 0.738827
vt 0.619481 0.851583
vt 0.671702 0.738827
vt 0.671702 0.871519
vt 0.671702 0.871519
vt 0.621048 0.669199
vt 0.569349 0.669199
vt 0.672746 0.669199
vt 0.650814 0.599572
vt 0.609037 0.599572
vt 0.692590 0.599572
vt 0.436929 0.669199
vt 0.439018 0.738827
vt 0.439018 0.727401
vt 0.436929 0.680625
vt 0.569349 0.669199
vt 0.609037 0.599572
vt 0.621048 0.669199
vt 0.650814 0.599572
vt 0.619481 0.738827
vt 0.672746 0.669199
vt 0.692590 0.599572
vt 0.671702 0.738827
vt 0.724445 0.669199
vt 0.734367 0.599572
vt 0.723923 0.738827
vt 0.776143 0.669199
vt 0.776143 0.599572
vt 0.776143 0.738827
vt 0.723923 0.846852
vt 0.776143 0.794695
vt 0.723923 0.846852
vt 0.776143 0.794695
vt 0.723923 0.738827
vt 0.776143 0.738827
vt 0.724445 0.669199
vt 0.776143 0.669199
vt 0.734367 0.599572
vt 0.776143 0.599572
vt 0.772742 0.470883
vt 0.772742 0.470883
vt 0.943250 0.599572
vt 0.943250 0.599572
vt 0.901473 0.599572
vt 0.859697 0.599572
vt 0.922361 0.599572
vt 0.817920 0.599572
vt 0.982938 0.669199
vt 0.982938 0.669199
vt 0.957088 0.669199
vt 0.931239 0.669199
vt 0.922361 0.599572
vt 0.957088 0.669199
vt 0.901473 0.599572
vt 0.859697 0.599572
vt 0.879540 0.669199
vt 0.931239 0.669199
vt 0.880585 0.738827
vt 0.932806 0.738827
vt 0.817920 0.599572
vt 0.827842 0.669199
vt 0.828364 0.738827
vt 0.828364 0.846852
vt 0.880585 0.871519
vt 0.828364 0.846852
vt 0.880585 0.871519
vt 0.828364 0.738827
vt 0.880585 0.738827
vt 0.827842 0.669199
vt 0.879540 0.669199
vt 0.932806 0.738827
vt 0.958916 0.738827
vt 0.932806 0.851583
vt 0.958916 0.812612
vt 0.932806 0.851583
vt 0.958916 0.812612
vt 0.958916 0.738827
vt 0.985026 0.773641
vt 0.985026 0.738827
vt 0.985026 0.773641
vt 0.985026 0.738827
vt 0.047362 0.738827
vt 0.047362 0.812612
vt 0.021252 0.773641
vt 0.021252 0.738827
vt 0.021252 0.773641
vt 0.021252 0.738827
vt 0.047362 0.812612
vt 0.125693 0.738827
vt 0.125693 0.871519
vt 0.073473 0.851583
vt 0.073473 0.738827
vt 0.125693 0.871519
vt 0.073473 0.851583
vt 0.049190 0.669199
vt 0.023341 0.669199
vt 0.126738 0.669199
vt 0.075039 0.669199
vt 0.083917 0.599572
vt 0.063028 0.599572
vt 0.146582 0.599572
vt 0.104805 0.599572
vt 0.023341 0.669199
vt 0.063028 0.599572
vt 0.083917 0.599572
vt 0.049190 0.669199
vt 0.075039 0.669199
vt 0.104805 0.599572
vt 0.047362 0.738827
vt 0.073473 0.738827
vt 0.126738 0.669199
vt 0.146582 0.599572
vt 0.125693 0.738827
vt 0.178436 0.669199
vt 0.188358 0.599572
vt 0.177914 0.738827
vt 0.230135 0.669199
vt 0.230135 0.599572
vt 0.230135 0.738827
vt 0.177914 0.846852
vt 0.230135 0.794695
vt 0.177914 0.846852
vt 0.230135 0.794695
vt 0.177914 0.738827
vt 0.230135 0.738827
vt 0.178436 0.669199
vt 0.230135 0.669199
vt 0.188358 0.599572
vt 0.230135 0.599572
vt 0.226733 0.470883
vt 0.226733 0.470883
vt 0.397241 0.599572
vt 0.397241 0.599572
vt 0.355465 0.599572
vt 0.313688 0.599572
vt 0.271911 0.599572
vt 0.436929 0.669199
vt 0.385230 0.669199
vt 0.355465 0.599572
vt 0.385230 0.669199
vt 0.313688 0.599572
vt 0.333532 0.669199
vt 0.334576 0.738827
vt 0.386797 0.738827
vt 0.271911 0.599572
vt 0.281833 0.669199
vt 0.282356 0.738827
vt 0.282356 0.846852
vt 0.334576 0.871519
vt 0.282356 0.846852
vt 0.334576 0.871519
vt 0.282356 0.738827
vt 0.334576 0.738827
vt 0.281833 0.669199
vt 0.333532 0.669199
vt 0.386797 0.738827
vt 0.439018 0.738827
vt 0.386797 0.851583
vt 0.439018 0.773641
vt 0.386797 0.851583
vt 0.439018 0.773641
vt 0.436929 0.680625
vt 0.439018 0.727401
vt 0.616199 0.423573
vt 0.612632 0.503447
vt 0.503139 0.537136
vt 0.503139 0.457262
vt 0.612632 0.503447
vt 0.616199 0.423573
vt 0.503139 0.457262
vt 0.503139 0.537136
vt 0.569349 0.680625
vt 0.567261 0.727401
vt 0.567261 0.727401
vt 0.390079 0.423573
vt 0.390079 0.423573
vt 0.393646 0.503447
vt 0.393646 0.503447
vt 0.978306 0.241796
vt 0.978306 0.241796
vt 0.226054 0.241796
vt 0.226054 0.241796
vt 0.226054 0.343295
vt 0.226054 0.343295
vt 0.022207 0.213180
vt 0.022207 0.213180
vt 0.978306 0.343295
vt 0.978306 0.343295
vt 0.978306 0.241796
vt 0.978306 0.241796
vt 0.226054 0.241796
vt 0.226054 0.241796
vt 0.022207 0.111681
vt 0.022207 0.111681
vt 0.022207 0.111681
vt 0.022207 0.111681
vt 0.978306 0.343295
vt 0.978306 0.241796
vt 0.226054 0.241796
vt 0.226054 0.343295
vt 0.226054 0.241796
vt 0.226054 0.343295
vt 0.022207 0.213180
vt 0.022207 0.111681
vt 0.978306 0.241796
vt 0.978306 0.343295
vt 0.022207 0.213180
vt 0.022207 0.111681
vn -0.0000 -0.1423 0.9898
vn -1.0000 -0.0000 0.0000
vn -0.8639 0.4985 0.0717
vn -0.4018 0.9064 0.1303
vn -0.0000 0.1423 -0.9898
vn -0.0002 0.1423 -0.9898
vn -0.0003 0.1423 -0.9898
vn -0.8965 -0.4386 -0.0631
vn -0.0007 0.1418 -0.9899
vn -0.0014 0.1412 -0.9900
vn 0.7540 0.6502 0.0935
vn 0.4771 0.8699 0.1251
vn -0.0007 -0.1428 0.9897
vn -0.0014 -0.1434 0.9897
vn -0.6704 -0.7344 -0.1056
vn 0.6553 -0.7477 -0.1075
vn 0.8959 -0.4398 -0.0632
vn 0.0011 0.1419 -0.9899
vn 0.0004 0.1414 -0.9900
vn -0.0014 0.1402 -0.9901
vn 0.0021 0.1416 -0.9899
vn -0.4771 0.8699 0.1251
vn -0.7540 0.6502 0.0935
vn 0.0004 -0.1432 0.9897
vn -0.0014 -0.1444 0.9895
vn 0.0011 -0.1427 0.9898
vn 0.0021 -0.1430 0.9897
vn 0.4018 0.9064 0.1303
vn 0.8639 0.4985 0.0717
vn 1.0000 0.0000 0.0000
vn 0.9997 -0.0258 -0.0037
vn -0.9997 -0.0258 -0.0037
vn -0.9997 -0.0258 -0.0036
vn -0.8959 -0.4398 -0.0632
vn 0.8962 -0.4394 -0.0614
vn 0.0001 0.1423 -0.9898
vn 1.0000 0.0001 0.0000
vn 0.3257 -0.9353 -0.1382
vn 0.3334 0.9332 0.1342
vn -0.3274 -0.9353 -0.1345
vn -0.3334 0.9332 0.1342
vn 0.0000 -0.9909 -0.1349
vn 0.0000 0.9109 -0.4126
vn -0.9997 -0.0259 -0.0035
vn 0.0000 0.9909 0.1349
vn 0.9997 0.0226 0.0031
vn 0.0000 -0.9109 0.4126
vn 0.9996 0.0247 -0.0112
vn -0.9995 -0.0282 0.0128
vn 0.9997 -0.0259 -0.0035
vn -0.9996 0.0247 -0.0112
vn -0.9997 0.0226 0.0031
vn 0.9995 -0.0282 0.0128
usemtl Material.001
s 1
f 7/1/1 4/2/1 1/3/1 2/4/1
f 2/4/2 1/3/2 3/5/2 16/6/2
f 6/7/3 3/5/3 1/3/3 4/2/3
f 8/8/1 5/9/1 4/2/1 7/1/1
f 30/10/4 6/7/4 4/2/4 5/9/4
f 9/11/1 7/1/1 2/4/1 12/12/1
f 11/13/1 8/8/1 7/1/1 9/11/1
f 10/14/1 9/11/1 12/12/1 13/15/1
f 38/16/1 11/13/1 9/11/1 10/14/1
f 122/17/5 147/18/5 151/19/6 153/20/7
f 13/15/8 12/12/8 14/21/8 15/22/8
f 15/22/5 14/21/5 17/23/5 18/24/5
f 14/21/5 16/6/5 19/25/5 17/23/5
f 18/24/5 17/23/5 20/26/5 21/27/5
f 17/23/5 19/25/5 22/28/5 20/26/5
f 21/27/5 20/26/5 23/29/5 25/30/5
f 20/26/5 22/28/5 26/31/5 23/29/5
f 25/30/5 23/29/5 24/32/5 74/33/5
f 23/29/5 26/31/5 27/34/9 24/32/5
f 26/31/5 28/35/5 29/36/10 27/34/9
f 22/28/5 30/10/5 28/35/5 26/31/5
f 29/36/11 28/35/11 31/37/11 32/38/11
f 28/35/12 30/10/12 5/9/12 31/37/12
f 33/39/1 31/37/1 5/9/1 8/8/1
f 34/40/13 32/38/14 31/37/1 33/39/1
f 35/41/1 33/39/1 8/8/1 11/13/1
f 36/42/1 34/40/13 33/39/1 35/41/1
f 37/43/1 35/41/1 11/13/1 38/16/1
f 39/44/1 36/42/1 35/41/1 37/43/1
f 37/43/1 38/16/1 40/45/1
f 39/44/1 37/43/1 40/45/1
f 13/15/15 15/22/15 41/46/15 40/45/15
f 47/47/16 45/48/16 40/45/16 41/46/16
f 10/14/1 13/15/1 40/45/1
f 38/16/1 10/14/1 40/45/1
f 42/49/1 43/50/1 40/45/1
f 45/48/1 160/51/1 42/49/1 40/45/1
f 43/50/1 44/52/1 40/45/1
f 44/52/1 39/44/1 40/45/1
f 47/47/17 48/53/17 46/54/17 45/48/17
f 160/51/1 159/55/1 66/56/1 42/49/1
f 161/57/5 158/58/5 48/53/5 47/47/5
f 49/59/5 161/57/5 47/47/5 41/46/5
f 50/60/5 49/59/5 41/46/5
f 50/60/5 53/61/5 51/62/5 49/59/5
f 53/61/5 54/63/18 52/64/5 51/62/5
f 56/65/5 55/66/5 53/61/5 50/60/5
f 55/66/5 57/67/19 54/63/18 53/61/5
f 24/32/5 27/34/9 57/67/19 55/66/5
f 74/33/5 24/32/5 55/66/5 56/65/5
f 57/67/19 58/68/20 59/69/21 54/63/18
f 27/34/9 29/36/10 58/68/20 57/67/19
f 59/69/22 58/68/22 60/70/22 61/71/22
f 58/68/23 29/36/23 32/38/23 60/70/23
f 62/72/24 60/70/25 32/38/14 34/40/13
f 63/73/26 61/71/27 60/70/25 62/72/24
f 64/74/1 62/72/24 34/40/13 36/42/1
f 65/75/1 63/73/26 62/72/24 64/74/1
f 44/52/1 64/74/1 36/42/1 39/44/1
f 43/50/1 65/75/1 64/74/1 44/52/1
f 42/49/1 66/56/1 65/75/1 43/50/1
f 66/56/1 67/76/1 63/73/26 65/75/1
f 159/55/1 162/77/1 67/76/1 66/56/1
f 67/76/1 69/78/1 61/71/27 63/73/26
f 162/77/1 163/79/1 69/78/1 67/76/1
f 71/80/28 59/69/28 61/71/28 69/78/28
f 164/81/29 71/80/29 69/78/29 163/79/29
f 165/82/5 164/81/5 72/83/5 73/84/5
f 54/63/18 59/69/21 71/80/5 52/64/5
f 73/84/30 72/83/30 70/85/30 68/86/30
f 48/53/31 73/84/31 68/86/31 46/54/31
f 56/65/5 50/60/5 41/46/5
f 74/33/5 56/65/5 41/46/5
f 25/30/5 74/33/5 41/46/5
f 21/27/5 25/30/5 41/46/5
f 18/24/5 21/27/5 41/46/5
f 15/22/5 18/24/5 41/46/5
f 19/25/5 6/7/5 30/10/5 22/28/5
f 16/6/5 3/5/5 6/7/5 19/25/5
f 167/87/1 166/88/1 75/89/1 76/90/1
f 76/90/2 75/89/2 77/91/2 90/92/2
f 173/93/3 77/91/3 75/89/3 166/88/3
f 82/94/1 79/95/1 78/96/1 81/97/1
f 104/98/4 80/99/4 78/96/4 79/95/4
f 168/100/1 167/87/1 76/90/1 86/101/1
f 85/102/1 82/94/1 81/97/1 83/103/1
f 172/104/1 168/100/1 86/101/1 87/105/1
f 112/106/1 85/102/1 83/103/1 84/107/1
f 86/101/32 76/90/32 90/92/33 88/108/33
f 87/105/34 86/101/34 88/108/34 89/109/34
f 171/110/5 169/111/5 91/112/5 92/113/5
f 169/111/5 170/114/5 93/115/5 91/112/5
f 92/113/5 91/112/5 94/116/5 95/117/5
f 91/112/5 93/115/5 96/118/5 94/116/5
f 95/117/5 94/116/5 97/119/5 99/120/5
f 94/116/5 96/118/5 100/121/5 97/119/5
f 99/120/5 97/119/5 98/122/5 148/123/5
f 97/119/5 100/121/5 101/124/9 98/122/5
f 100/121/5 102/125/5 103/126/10 101/124/9
f 96/118/5 104/98/5 102/125/5 100/121/5
f 103/126/11 102/125/11 105/127/11 106/128/11
f 102/125/12 104/98/12 79/95/12 105/127/12
f 107/129/1 105/127/1 79/95/1 82/94/1
f 108/130/13 106/128/14 105/127/1 107/129/1
f 109/131/1 107/129/1 82/94/1 85/102/1
f 110/132/1 108/130/13 107/129/1 109/131/1
f 111/133/1 109/131/1 85/102/1 112/106/1
f 113/134/1 110/132/1 109/131/1 111/133/1
f 111/133/1 112/106/1 114/135/1
f 113/134/1 111/133/1 114/135/1
f 87/105/15 89/109/15 115/136/15 114/135/15
f 121/137/16 119/138/16 114/135/16 115/136/16
f 84/107/1 172/104/1 87/105/1 114/135/1
f 112/106/1 84/107/1 114/135/1
f 116/139/1 117/140/1 114/135/1
f 119/138/1 116/139/1 114/135/1
f 117/140/1 118/141/1 114/135/1
f 118/141/1 113/134/1 114/135/1
f 121/137/35 122/17/35 120/142/35 119/138/35
f 119/138/1 120/142/1 140/143/1 116/139/1
f 123/144/5 125/145/5 122/17/5 121/137/5
f 123/144/5 121/137/5 115/136/5
f 124/146/5 123/144/5 115/136/5
f 124/146/5 127/147/5 125/145/5 123/144/5
f 127/147/5 128/148/18 126/149/5 125/145/5
f 125/145/5 126/149/5 147/18/5 122/17/5
f 130/150/5 129/151/5 127/147/5 124/146/5
f 129/151/5 131/152/19 128/148/18 127/147/5
f 98/122/5 101/124/9 131/152/19 129/151/5
f 148/123/5 98/122/5 129/151/5 130/150/5
f 131/152/19 132/153/20 133/154/21 128/148/18
f 101/124/9 103/126/10 132/153/20 131/152/19
f 133/154/22 132/153/22 134/155/22 135/156/22
f 132/153/23 103/126/23 106/128/23 134/155/23
f 136/157/24 134/155/25 106/128/14 108/130/13
f 137/158/26 135/156/27 134/155/25 136/157/24
f 138/159/1 136/157/24 108/130/13 110/132/1
f 139/160/1 137/158/26 136/157/24 138/159/1
f 118/141/1 138/159/1 110/132/1 113/134/1
f 117/140/1 139/160/1 138/159/1 118/141/1
f 116/139/1 140/143/1 139/160/1 117/140/1
f 140/143/1 141/161/1 137/158/26 139/160/1
f 120/142/1 142/162/1 141/161/1 140/143/1
f 141/161/1 143/163/1 135/156/27 137/158/26
f 142/162/1 144/164/1 143/163/1 141/161/1
f 145/165/28 133/154/28 135/156/28 143/163/28
f 146/166/29 145/165/29 143/163/29 144/164/29
f 126/149/5 145/165/5 146/166/5 147/18/5
f 128/148/18 133/154/21 145/165/5 126/149/5
f 147/18/30 146/166/30 144/164/30 142/162/30
f 142/162/1 120/167/1 152/168/1
f 130/150/5 124/146/5 115/136/5
f 148/123/5 130/150/5 115/136/5
f 99/120/5 148/123/5 115/136/5
f 95/117/5 99/120/5 115/136/5
f 92/113/5 95/117/5 115/136/5
f 89/109/5 171/110/5 92/113/5 115/136/5
f 93/115/5 80/99/5 104/98/5 96/118/5
f 170/114/5 173/93/5 80/99/5 93/115/5
f 12/169/1 149/170/1 155/171/1 154/172/1
f 150/173/36 14/174/5 156/175/5 157/176/5
f 16/6/5 14/177/5 150/178/36
f 147/18/30 142/162/30 152/168/30 151/19/30
f 2/4/2 16/6/2 150/178/2 149/179/2
f 12/12/1 2/4/1 149/179/1
f 120/142/37 122/17/37 153/20/37
f 154/172/2 155/171/2 157/176/2 156/175/2
f 52/64/5 71/80/5 164/81/5 165/82/5
f 120/180/38 153/181/38 156/175/38 154/172/38
f 153/181/7 151/182/6 157/176/5 156/175/5
f 149/170/39 150/173/39 157/176/39 155/171/39
f 14/174/40 12/169/40 154/172/40 156/175/40
f 152/183/1 120/180/1 154/172/1 155/171/1
f 151/182/41 152/183/41 155/171/41 157/176/41
f 72/83/29 164/81/29 163/79/29 70/85/29
f 68/86/1 70/85/1 163/79/1 162/77/1
f 46/54/1 68/86/1 162/77/1 159/55/1
f 51/62/5 52/64/5 165/82/5 158/58/5
f 49/59/5 51/62/5 158/58/5 161/57/5
f 45/48/1 46/54/1 159/55/1 160/51/1
f 90/92/5 77/91/5 173/93/5 170/114/5
f 169/184/42 88/185/42 177/186/42 178/187/42
f 89/109/5 88/108/5 169/111/5 171/110/5
f 84/107/1 83/103/1 168/100/1 172/104/1
f 83/103/1 81/97/1 167/87/1 168/100/1
f 80/99/3 173/93/3 166/88/3 78/96/3
f 81/97/1 78/96/1 166/88/1 167/87/1
f 176/188/43 179/189/43 185/190/43 182/191/43
f 88/185/33 90/192/33 176/188/44 177/186/44
f 90/192/45 170/193/45 179/189/45 176/188/45
f 48/194/42 158/195/42 174/196/42 175/197/42
f 170/193/46 169/184/46 178/187/46 179/189/46
f 183/198/5 182/191/5 185/190/5 184/199/5
f 175/197/47 174/196/47 180/200/47 181/201/47
f 179/189/48 178/187/48 184/199/48 185/190/48
f 178/187/47 177/186/47 183/198/47 184/199/47
f 177/186/49 176/188/49 182/191/49 183/198/49
f 187/202/50 186/203/50 191/204/50 193/205/50
f 190/206/51 192/207/51 196/208/51 194/209/51
f 188/210/52 189/211/52 192/207/52 190/206/52
f 189/211/45 187/202/45 193/205/45 192/207/45
f 194/209/5 196/208/5 197/212/5 195/213/5
f 193/205/53 191/204/53 195/213/53 197/212/53
f 192/207/43 193/205/43 197/212/43 196/208/43
